<svg xmlns="http://www.w3.org/2000/svg" width="55.96mm" height="42.08mm" viewBox="0 0 661 497">
  <polygon points="333.00,461.50 330.00,461.50 327.50,461.00 325.00,460.50 322.00,460.50 319.50,460.00 317.00,459.50 315.00,458.50 312.50,458.00 310.00,457.50 308.00,456.50 306.00,455.50 304.00,454.50 302.00,453.50 300.00,452.50 298.00,451.50 296.50,450.00 295.00,448.50 293.00,447.50 292.00,445.50 290.50,444.00 289.00,442.50 287.50,441.00 286.00,439.50 284.00,438.50 282.50,437.00 281.00,435.50 280.00,433.50 278.50,432.00 277.00,430.50 275.50,429.00 274.50,427.00 273.00,425.50 271.00,424.50 269.50,423.00 267.50,422.00 266.00,420.50 263.50,420.00 261.00,419.50 259.00,418.50 257.00,417.50 254.50,417.00 252.00,416.50 249.00,416.50 247.00,415.50 244.00,415.50 241.00,415.50 238.00,415.50 235.00,415.50 232.00,415.50 229.00,415.50 226.00,415.50 223.00,415.50 220.00,415.50 217.00,415.50 214.00,415.50 211.00,415.50 208.00,415.50 205.00,415.50 202.00,415.50 199.00,415.50 196.00,415.50 193.00,415.50 190.00,415.50 187.00,415.50 184.00,415.50 181.00,415.50 178.00,415.50 175.00,415.50 172.00,415.50 169.00,415.50 166.00,415.50 163.00,415.50 160.00,415.50 157.00,415.50 154.00,415.50 151.00,415.50 148.00,415.50 145.00,415.50 142.00,415.50 139.00,415.50 136.00,415.50 133.00,415.50 130.00,415.50 127.00,415.50 124.00,415.50 121.00,415.50 118.00,415.50 115.00,415.50 112.00,415.50 109.00,415.50 106.00,415.50 103.00,415.50 100.00,415.50 97.00,415.50 94.00,415.50 91.00,415.50 88.00,415.50 85.00,415.50 82.00,415.50 79.00,415.50 76.00,415.50 74.00,414.50 71.00,414.50 68.00,414.50 66.00,413.50 63.00,413.50 61.00,412.50 59.00,411.50 56.50,411.00 54.50,410.00 52.50,409.00 51.00,407.50 49.00,406.50 47.50,405.00 46.00,403.50 44.50,402.00 43.00,400.50 42.00,398.50 40.50,397.00 39.50,395.00 38.50,393.00 38.00,390.50 37.50,388.00 36.50,386.00 36.50,383.00 35.50,381.00 35.50,378.00 35.50,375.00 34.50,373.00 34.50,370.00 34.50,367.00 34.50,364.00 34.50,361.00 34.50,358.00 34.50,355.00 34.50,352.00 34.50,349.00 34.50,346.00 34.50,343.00 34.50,340.00 34.50,337.00 34.50,334.00 34.50,331.00 34.50,328.00 34.50,325.00 34.50,322.00 34.50,319.00 34.50,316.00 34.50,313.00 34.50,310.00 34.50,307.00 34.50,304.00 34.50,301.00 34.50,298.00 34.50,295.00 34.50,292.00 34.50,289.00 34.50,286.00 34.50,283.00 34.50,280.00 34.50,277.00 34.50,274.00 34.50,271.00 34.50,268.00 34.50,265.00 35.00,262.50 35.50,260.00 35.50,257.00 36.00,254.50 36.50,252.00 37.00,249.50 38.00,247.50 38.50,245.00 39.50,243.00 40.50,241.00 41.50,239.00 42.50,237.00 44.00,235.50 45.50,234.00 47.00,232.50 49.00,231.50 50.50,230.00 52.50,229.00 54.00,227.50 56.00,226.50 58.00,225.50 60.50,225.00 62.00,223.50 64.50,223.00 67.00,222.50 69.50,222.00 72.00,221.50 75.00,221.50 77.50,221.00 80.00,220.50 83.00,220.50 86.00,220.50 89.00,220.50 92.00,220.50 95.00,220.50 98.00,220.50 101.00,220.50 104.00,220.50 107.00,220.50 110.00,220.50 113.00,220.50 116.00,220.50 119.00,220.50 122.00,220.50 125.00,220.50 128.00,220.50 131.00,220.50 134.00,220.50 137.00,220.50 140.00,220.50 143.00,220.50 146.00,220.50 149.00,220.50 152.00,220.50 155.00,220.50 158.00,220.50 160.00,221.50 163.00,221.50 166.00,221.50 169.00,221.50 172.00,221.50 175.00,221.50 178.00,221.50 181.00,221.50 184.00,221.50 187.00,221.50 190.00,221.50 193.00,221.50 196.00,221.50 199.00,221.50 202.00,221.50 205.00,221.50 208.00,221.50 210.00,220.50 213.00,220.50 215.00,219.50 218.00,219.50 220.00,218.50 222.00,217.50 224.00,216.50 226.00,215.50 227.50,214.00 229.00,212.50 230.50,211.00 231.50,209.00 232.50,207.00 233.50,205.00 234.50,203.00 235.00,200.50 235.50,198.00 235.50,195.00 236.50,193.00 236.50,190.00 236.50,187.00 236.50,184.00 236.50,181.00 236.50,178.00 236.50,175.00 236.50,172.00 237.50,170.00 237.50,167.00 237.50,164.00 237.50,161.00 237.50,158.00 237.50,155.00 237.50,152.00 237.50,149.00 238.50,147.00 238.50,144.00 238.50,141.00 238.50,138.00 239.00,135.50 239.50,133.00 239.50,130.00 239.50,127.00 240.50,125.00 240.50,122.00 240.50,119.00 240.50,116.00 241.50,114.00 241.50,111.00 241.50,108.00 242.50,106.00 242.50,103.00 242.50,100.00 243.50,98.00 243.50,95.00 243.50,92.00 244.50,90.00 244.50,87.00 245.50,85.00 246.00,83.50 245.50,81.00 247.00,79.50 246.50,78.00 247.50,76.00 248.50,74.00 249.50,72.00 249.50,69.00 250.50,67.00 251.50,65.00 252.50,63.00 253.50,61.00 255.00,59.50 256.00,57.50 257.50,56.00 259.00,54.50 260.00,52.50 261.50,51.00 263.00,49.50 265.00,48.50 266.50,47.00 268.00,45.50 270.00,44.50 271.50,43.00 273.50,42.00 275.50,41.00 277.50,40.00 279.50,39.00 282.00,38.50 284.00,37.50 286.50,37.00 289.00,36.50 291.00,35.50 294.00,35.50 296.00,34.50 299.00,34.50 302.00,34.50 305.00,34.50 308.00,34.50 311.00,34.50 314.00,34.50 317.00,34.50 320.00,34.50 322.00,35.50 325.00,35.50 328.00,35.50 330.50,36.00 333.00,36.50 336.00,36.50 339.00,36.50 341.00,37.50 344.00,37.50 347.00,37.50 349.00,38.50 352.00,38.50 355.00,38.50 357.50,39.00 360.00,39.50 363.00,39.50 366.00,39.50 368.00,40.50 371.00,40.50 373.00,41.50 376.00,41.50 378.50,42.00 381.00,42.50 383.00,43.50 385.00,44.50 387.50,45.00 389.50,46.00 391.00,47.50 393.00,48.50 394.50,50.00 396.50,51.00 398.00,52.50 399.50,54.00 401.00,55.50 402.50,57.00 403.50,59.00 405.00,60.50 406.00,62.50 407.00,64.50 408.00,66.50 409.00,68.50 409.50,71.00 410.50,73.00 410.50,76.00 411.50,78.00 411.50,81.00 412.50,83.00 413.00,84.50 412.50,87.00 412.50,90.00 412.50,93.00 412.50,96.00 413.00,97.50 413.50,99.00 414.50,101.00 414.50,104.00 414.50,107.00 414.50,110.00 414.50,113.00 415.50,115.00 415.50,118.00 415.50,121.00 416.50,123.00 416.50,126.00 417.00,128.50 417.50,131.00 418.00,133.50 418.50,136.00 419.00,138.50 419.50,141.00 420.00,143.50 420.50,146.00 420.50,149.00 421.50,151.00 421.50,154.00 422.00,156.50 422.50,159.00 422.50,162.00 422.50,165.00 422.50,168.00 423.50,170.00 423.50,173.00 423.50,176.00 423.50,179.00 423.50,182.00 423.50,185.00 424.00,187.50 424.50,190.00 424.50,193.00 424.50,196.00 425.50,198.00 426.00,200.50 426.50,203.00 427.50,205.00 428.50,207.00 429.50,209.00 430.50,211.00 432.00,212.50 433.50,214.00 435.00,215.50 437.50,216.00 439.50,217.00 441.50,218.00 444.00,218.50 446.00,219.50 449.00,219.50 451.00,220.50 454.00,220.50 457.00,220.50 460.00,220.50 463.00,220.50 466.00,220.50 469.00,220.50 472.00,220.50 475.00,220.50 478.00,220.50 481.00,220.50 484.00,220.50 487.00,220.50 490.00,220.50 493.00,220.50 496.00,220.50 499.00,220.50 502.00,220.50 505.00,220.50 508.00,220.50 511.00,220.50 514.00,220.50 517.00,220.50 520.00,220.50 523.00,220.50 526.00,220.50 529.00,220.50 532.00,220.50 535.00,220.50 538.00,220.50 541.00,220.50 544.00,220.50 547.00,220.50 550.00,220.50 553.00,220.50 556.00,220.50 559.00,220.50 562.00,220.50 565.00,220.50 568.00,220.50 571.00,220.50 574.00,220.50 577.00,220.50 580.00,220.50 582.50,221.00 585.00,221.50 588.00,221.50 590.50,222.00 593.00,222.50 595.50,223.00 598.00,223.50 599.50,225.00 601.50,226.00 603.50,227.00 605.50,228.00 607.50,229.00 609.00,230.50 611.00,231.50 613.00,232.50 614.50,234.00 616.00,235.50 617.00,237.50 618.50,239.00 619.50,241.00 620.00,243.50 621.00,245.50 621.50,248.00 622.50,250.00 623.50,252.00 623.50,255.00 624.50,257.00 624.50,260.00 624.50,263.00 625.00,265.50 625.50,268.00 625.50,271.00 625.50,274.00 625.50,277.00 625.50,280.00 625.50,283.00 625.50,286.00 625.50,289.00 625.50,292.00 625.50,295.00 625.50,298.00 625.50,301.00 625.50,304.00 625.50,307.00 625.00,309.50 624.50,312.00 624.50,315.00 624.50,318.00 624.50,321.00 623.50,323.00 623.50,326.00 623.50,329.00 623.00,331.50 622.50,334.00 622.50,337.00 622.00,339.50 621.50,342.00 621.50,345.00 621.50,348.00 621.50,351.00 621.50,354.00 621.50,357.00 621.50,360.00 622.50,362.00 622.50,365.00 622.50,368.00 622.50,371.00 622.50,374.00 622.50,377.00 622.50,380.00 622.50,383.00 622.50,386.00 621.50,388.00 621.00,390.50 620.50,393.00 619.50,395.00 618.50,397.00 617.50,399.00 616.00,400.50 615.00,402.50 613.50,404.00 612.00,405.50 610.00,406.50 608.50,408.00 607.00,409.50 605.00,410.50 603.00,411.50 601.00,412.50 599.00,413.50 596.50,414.00 594.00,414.50 591.00,414.50 589.00,415.50 586.00,415.50 583.00,415.50 581.00,416.50 578.00,416.50 575.00,416.50 572.00,416.50 569.00,416.50 566.00,416.50 563.00,416.50 560.00,416.50 557.00,416.50 554.50,416.00 552.00,415.50 549.00,415.50 546.00,415.50 543.00,415.50 540.00,415.50 537.00,415.50 534.00,415.50 531.00,415.50 528.00,415.50 525.00,415.50 522.00,415.50 519.00,415.50 516.00,415.50 513.00,415.50 510.00,415.50 507.00,415.50 504.00,415.50 501.00,415.50 499.00,416.50 496.00,416.50 493.00,416.50 491.00,417.50 488.50,418.00 486.00,418.50 484.00,419.50 482.00,420.50 480.00,421.50 478.00,422.50 476.50,424.00 474.50,425.00 473.00,426.50 471.00,427.50 469.50,429.00 468.00,430.50 466.00,431.50 464.00,432.50 462.50,434.00 460.50,435.00 459.00,436.50 457.00,437.50 455.00,438.50 452.50,439.00 450.50,440.00 448.50,441.00 446.00,441.50 444.00,442.50 442.00,443.50 439.00,443.50 437.00,444.50 434.50,445.00 432.00,445.50 429.00,445.50 426.00,445.50 424.50,447.00 422.00,447.50 419.00,447.50 416.00,447.50 414.50,446.00 413.00,446.50 411.00,445.50 408.00,445.50 405.00,445.50 403.00,444.50 400.00,444.50 398.00,443.50 395.00,443.50 392.00,443.50 390.00,442.50 387.00,442.50 384.00,442.50 381.50,443.00 379.00,443.50 376.50,444.00 374.00,444.50 372.00,445.50 370.50,447.00 368.00,447.50 366.00,448.50 364.50,450.00 362.50,451.00 360.50,452.00 358.00,452.50 356.50,454.00 354.50,455.00 352.50,456.00 350.50,457.00 348.00,457.50 346.00,458.50 344.00,459.50 341.50,460.00 339.00,460.50 336.00,460.50 333.50,461.00" fill="none" stroke="magenta" stroke-width="2.0"/>
</svg>
